<svg width="4425" height="2213" viewBox="0 0 4425 2213" fill="none" xmlns="http://www.w3.org/2000/svg">
<path d="M338.747 708.825C393.923 509.578 459.827 363.209 536.461 269.716C614.627 174.691 686.662 127.178 752.567 127.178C820.004 127.178 870.582 152.467 904.301 203.045C938.019 252.09 954.879 316.462 954.879 396.161C954.879 474.327 931.122 546.362 883.61 612.267C837.63 678.172 774.024 711.124 692.793 711.124C671.335 711.124 646.046 704.993 616.926 692.732C664.438 632.958 688.195 560.923 688.195 476.626C688.195 427.581 668.27 403.058 628.421 403.058C599.3 403.058 567.88 423.749 534.162 465.131C500.443 504.98 468.257 560.923 437.604 632.958C406.95 703.461 380.895 794.654 359.438 906.539C339.513 1016.89 329.551 1134.91 329.551 1260.58C329.551 1275.91 333.382 1341.05 341.046 1456C292 1459.07 260.581 1460.6 246.787 1460.6C159.425 1460.6 96.5852 1445.27 58.2685 1414.62C19.9519 1383.96 0.793526 1333.39 0.793526 1262.88C0.793526 1232.23 16.8865 1114.22 49.0725 908.838C81.2585 703.461 97.3515 540.232 97.3515 419.151C97.3515 296.538 84.3239 183.887 58.2685 81.1979C170.153 116.449 248.319 167.027 292.767 232.932C337.214 297.304 359.438 373.171 359.438 460.533C359.438 546.362 352.541 629.126 338.747 708.825ZM1789.16 603.071C1853.54 471.262 1934 368.573 2030.56 295.005C2128.65 221.437 2225.21 184.653 2320.23 184.653C2415.26 184.653 2493.42 222.97 2554.73 299.603C2617.57 374.704 2648.99 484.289 2648.99 628.36C2648.99 858.26 2586.15 1053.67 2460.47 1214.6C2334.79 1375.53 2183.83 1456 2007.57 1456C1944.73 1456 1881.12 1443.74 1816.75 1419.22C1966.95 1383.96 2086.5 1286.64 2175.4 1127.24C2264.29 967.846 2308.74 809.215 2308.74 651.35C2308.74 577.782 2294.94 518.008 2267.36 472.028C2241.3 426.048 2203.75 403.058 2154.71 403.058C2061.21 403.058 1978.45 459.767 1906.41 573.184C1834.38 686.601 1779.2 842.167 1740.89 1039.88C1702.57 1236.06 1683.41 1440.67 1683.41 1653.71C1683.41 1868.29 1698.74 2054.51 1729.39 2212.37C1603.71 2207.77 1510.22 2187.08 1448.91 2150.3C1389.14 2115.05 1359.25 2046.84 1359.25 1945.69C1359.25 1908.9 1382.24 1715.02 1428.22 1364.04C1475.73 1011.53 1499.49 740.245 1499.49 550.194C1499.49 360.143 1488 199.98 1465.01 69.7029C1587.62 100.356 1671.92 157.065 1717.9 239.829C1765.41 322.593 1789.16 443.674 1789.16 603.071ZM3985.66 152.467C4014.78 152.467 4037.01 154 4052.33 157.065C4092.18 164.728 4113.64 193.083 4116.7 242.128C3949.64 277.379 3816.3 367.807 3716.68 513.41C3618.59 659.013 3569.54 810.747 3569.54 968.612C3569.54 1152.53 3625.48 1244.49 3737.37 1244.49C3804.81 1244.49 3865.35 1207.71 3918.99 1134.14C4014.02 1000.8 4080.69 792.355 4119 508.812C4148.12 285.043 4202.53 140.972 4282.23 76.5999C4320.55 44.4139 4368.06 19.1249 4424.77 0.732963C4403.31 163.196 4392.58 285.809 4392.58 368.573C4392.58 981.64 4326.68 1442.21 4194.87 1750.27C4064.59 2058.34 3851.55 2212.37 3555.75 2212.37C3436.2 2212.37 3342.71 2180.19 3275.27 2115.81C3207.83 2052.97 3174.11 1983.24 3174.11 1906.6C3174.11 1831.5 3197.87 1769.43 3245.38 1720.39C3292.9 1672.87 3359.57 1649.12 3445.4 1649.12C3480.65 1649.12 3516.66 1656.78 3553.45 1672.11C3495.21 1710.42 3466.09 1769.43 3466.09 1849.13C3466.09 1902.77 3482.18 1948.75 3514.37 1987.07C3546.55 2026.92 3585.63 2046.84 3631.61 2046.84C3679.13 2046.84 3720.51 2036.88 3755.76 2016.96C3791.01 1998.56 3827.03 1964.85 3863.81 1915.8C3900.6 1866.75 3932.78 1805.45 3960.37 1731.88C4023.21 1561.75 4057.7 1329.55 4063.83 1035.28C4019.38 1167.09 3951.94 1272.85 3861.51 1352.54C3771.09 1432.24 3679.13 1472.09 3585.63 1472.09C3467.62 1472.09 3377.19 1427.65 3314.35 1338.75C3253.05 1248.32 3222.39 1133.37 3222.39 993.901C3222.39 831.438 3261.48 680.471 3339.64 540.998C3427 380.068 3548.08 268.183 3702.88 205.344C3788.71 170.093 3882.97 152.467 3985.66 152.467Z" fill="white"/>
</svg>
